<svg width="760" height="420" viewBox="0 0 760 420" fill="none" xmlns="http://www.w3.org/2000/svg">
  <title>Qinzi27 thinking workflow</title>
  <rect width="760" height="420" rx="18" fill="#F8FCFF"/>
  <path d="M0 66h760M0 132h760M0 198h760M0 264h760M0 330h760M76 0v420M152 0v420M228 0v420M304 0v420M380 0v420M456 0v420M532 0v420M608 0v420M684 0v420" stroke="#D7E7F2" stroke-width="1"/>
  <circle cx="120" cy="90" r="48" fill="#DDF1FF"/>
  <circle cx="92" cy="96" r="30" fill="#FDFEFF"/>
  <circle cx="132" cy="80" r="36" fill="#FDFEFF"/>
  <circle cx="162" cy="101" r="28" fill="#FDFEFF"/>
  <rect x="76" y="98" width="110" height="28" rx="14" fill="#FDFEFF"/>
  <path d="M77 166c50-26 95-26 136 0" stroke="#82BDE7" stroke-width="8" stroke-linecap="round"/>
  <rect x="52" y="150" width="190" height="78" rx="14" fill="white" stroke="#CFE4F1"/>
  <text x="76" y="184" fill="#1C241F" font-family="Arial, sans-serif" font-size="22" font-weight="700">Capture</text>
  <text x="76" y="208" fill="#667067" font-family="Arial, sans-serif" font-size="14">Inbox and loose sparks</text>
  <path d="M260 189h44" stroke="#82BDE7" stroke-width="5" stroke-linecap="round"/>
  <path d="m304 189-12-9v18l12-9Z" fill="#82BDE7"/>
  <rect x="322" y="150" width="190" height="78" rx="14" fill="white" stroke="#CFE4F1"/>
  <text x="346" y="184" fill="#1C241F" font-family="Arial, sans-serif" font-size="22" font-weight="700">Learn</text>
  <text x="346" y="208" fill="#667067" font-family="Arial, sans-serif" font-size="14">Notes, links, sources</text>
  <path d="M530 189h44" stroke="#82BDE7" stroke-width="5" stroke-linecap="round"/>
  <path d="m574 189-12-9v18l12-9Z" fill="#82BDE7"/>
  <rect x="592" y="150" width="120" height="78" rx="14" fill="#FFF7E5" stroke="#E7C882"/>
  <text x="615" y="184" fill="#1C241F" font-family="Arial, sans-serif" font-size="22" font-weight="700">Cards</text>
  <text x="615" y="208" fill="#667067" font-family="Arial, sans-serif" font-size="14">One clear idea</text>
  <path d="M652 238v32" stroke="#82BDE7" stroke-width="5" stroke-linecap="round"/>
  <path d="m652 270-9-12h18l-9 12Z" fill="#82BDE7"/>
  <rect x="502" y="286" width="210" height="78" rx="14" fill="white" stroke="#CFE4F1"/>
  <text x="526" y="320" fill="#1C241F" font-family="Arial, sans-serif" font-size="22" font-weight="700">Map</text>
  <text x="526" y="344" fill="#667067" font-family="Arial, sans-serif" font-size="14">Themes and connections</text>
  <path d="M484 325h-44" stroke="#82BDE7" stroke-width="5" stroke-linecap="round"/>
  <path d="m440 325 12-9v18l-12-9Z" fill="#82BDE7"/>
  <rect x="214" y="286" width="210" height="78" rx="14" fill="white" stroke="#CFE4F1"/>
  <text x="238" y="320" fill="#1C241F" font-family="Arial, sans-serif" font-size="22" font-weight="700">Draft</text>
  <text x="238" y="344" fill="#667067" font-family="Arial, sans-serif" font-size="14">Shape into a post</text>
  <path d="M196 325h-44" stroke="#82BDE7" stroke-width="5" stroke-linecap="round"/>
  <path d="m152 325 12-9v18l-12-9Z" fill="#82BDE7"/>
  <rect x="52" y="286" width="120" height="78" rx="14" fill="#EEF3EA" stroke="#BFD8C8"/>
  <text x="76" y="320" fill="#1C241F" font-family="Arial, sans-serif" font-size="22" font-weight="700">Post</text>
  <text x="76" y="344" fill="#667067" font-family="Arial, sans-serif" font-size="14">Public blog</text>
  <path d="M616 68c14 3 24 14 23 29-1 17-17 28-34 24-14-3-23-14-21-28 2-18 17-29 35-25" fill="#FFF7E5"/>
  <path d="M621 82c6 2 11 7 11 14 0 9-8 15-17 14-8-1-13-7-13-14 0-9 8-16 18-14" stroke="#D69C47" stroke-width="6" stroke-linecap="round"/>
  <path d="m681 54 5 13 13 5-13 5-5 13-5-13-13-5 13-5 5-13Z" fill="#BDE1FF"/>
  <path d="m540 70 4 10 10 4-10 4-4 10-4-10-10-4 10-4 4-10Z" fill="#F2B8C6"/>
</svg>
