<svg width="164" height="130" viewBox="0 0 164 130" fill="none" xmlns="http://www.w3.org/2000/svg">
  <title>Pastel cinnamon stars</title>
  <path d="M78 28c13 3 23 14 22 28-1 17-16 27-33 24-14-3-22-14-20-27 2-18 17-29 35-25" fill="#FFF7E5"/>
  <path d="M82 41c6 2 11 7 11 14 0 9-8 15-17 14-8-1-13-7-13-14 0-9 8-16 18-14" stroke="#D69C47" stroke-width="6" stroke-linecap="round"/>
  <path d="M78 54c4 0 8 3 8 7s-4 7-9 7c-4 0-7-3-7-7s3-7 8-7" stroke="#D69C47" stroke-width="5" stroke-linecap="round"/>
  <path d="m31 37 5 13 13 5-13 5-5 13-5-13-13-5 13-5 5-13Z" fill="#BDE1FF"/>
  <path d="m130 5 4 11 11 4-11 4-4 11-4-11-11-4 11-4 4-11Z" fill="#FFD98D"/>
  <path d="m130 80 6 16 16 6-16 6-6 16-6-16-16-6 16-6 6-16Z" fill="#B7E5D3"/>
  <circle cx="31" cy="104" r="7" fill="#87BDE6"/>
  <circle cx="104" cy="108" r="5" fill="#F2B8C6"/>
  <circle cx="151" cy="54" r="4" fill="#87BDE6"/>
</svg>
