<svg width="230" height="190" viewBox="0 0 230 190" fill="none" xmlns="http://www.w3.org/2000/svg">
  <title>Original cloud puppy decoration</title>
  <path d="M43 135c-12 0-22-9-22-21s10-21 22-21h3c3-20 20-35 41-35 8 0 15 2 21 5 8-14 24-24 42-24 27 0 49 21 50 48 17 4 29 19 29 37 0 21-17 38-38 38H55c-7 0-12-5-12-12v-15Z" fill="#DDF1FF"/>
  <path d="M58 128c-11 0-20-9-20-20s9-20 20-20h2c3-17 18-31 36-31 9 0 18 3 25 9 8-16 25-27 44-27 28 0 51 23 51 51 0 2 0 4-.1 6 12 5 20 17 20 30 0 18-15 33-33 33H71c-7 0-13-6-13-13v-18Z" fill="#F8FCFF"/>
  <path d="M73 98c-10-28-30-50-47-43-15 6-15 36 0 62 10 18 23 30 34 29 12-1 18-21 13-48Z" fill="#F8FCFF"/>
  <path d="M54 96c-6-18-18-31-27-28-8 3-8 21 0 37 6 12 14 19 21 18 7-1 9-12 6-27Z" fill="#DDF1FF"/>
  <path d="M169 96c11-29 34-50 50-42 15 7 12 37-6 62-12 17-27 28-38 26-12-2-17-23-6-46Z" fill="#F8FCFF"/>
  <path d="M189 96c7-18 21-30 30-26 8 4 6 22-4 37-7 11-16 18-23 16-7-1-8-13-3-27Z" fill="#DDF1FF"/>
  <path d="M82 62c8-14 24-23 43-23 26 0 47 18 49 42 2 24-18 44-46 46-29 2-53-15-56-39-1-10 2-19 10-26Z" fill="#FDFEFF"/>
  <circle cx="103" cy="84" r="6" fill="#293E4A"/>
  <circle cx="151" cy="84" r="6" fill="#293E4A"/>
  <path d="M123 94c3 4 8 4 11 0" stroke="#293E4A" stroke-width="4" stroke-linecap="round"/>
  <path d="M128 88c4 0 7 2 7 5s-3 5-7 5-7-2-7-5 3-5 7-5Z" fill="#293E4A"/>
  <circle cx="88" cy="95" r="9" fill="#FFD8E3" opacity=".72"/>
  <circle cx="166" cy="95" r="9" fill="#FFD8E3" opacity=".72"/>
  <path d="M103 54c10-15 37-15 49 0" stroke="#87BDE6" stroke-width="8" stroke-linecap="round"/>
  <path d="M95 139c22 12 53 12 75-1" stroke="#BDE1FF" stroke-width="7" stroke-linecap="round"/>
  <path d="M36 44c10 2 17 10 16 20-1 12-12 20-24 18-10-2-17-10-16-20 1-13 12-21 24-18Z" fill="#FFF7E5"/>
  <path d="M37 52c5 1 9 5 9 10 0 6-6 10-12 9-6-1-9-5-9-10 0-6 5-10 12-9Z" stroke="#D69C47" stroke-width="5" stroke-linecap="round"/>
</svg>
